<?xml version="1.0" encoding="UTF-8" standalone="no"?>
<!-- Created with Inkscape (http://www.inkscape.org/) -->

<svg
        width="512"
        height="512"
        viewBox="0 0 135.46666 135.46666"
        version="1.1"
        id="svg5"
        xmlns="http://www.w3.org/2000/svg"
>
    <g id="layer1">
        <path
                transform="matrix(0.26458333,0,0,0.26458333,-34.106441,-31.34434)"
                id="path13477"
                style="font-weight:bold;-inkscape-font-specification:'sans-serif Bold';fill:#000000"
                d="m 444.4375,436.66992 q -9.9375,5.15625 -20.71875,7.78125 -10.78125,2.625 -22.5,2.625 -34.96875,0 -55.40625,-19.5 -20.4375,-19.59375 -20.4375,-53.0625 0,-33.5625 20.4375,-53.0625 20.4375,-19.59375 55.40625,-19.59375 11.71875,0 22.5,2.625 10.78125,2.625 20.71875,7.78125 v 28.96875 q -10.03125,-6.84375 -19.78125,-10.03125 -9.75,-3.1875 -20.53125,-3.1875 -19.3125,0 -30.375,12.375 -11.0625,12.375 -11.0625,34.125 0,21.65625 11.0625,34.03125 11.0625,12.375 30.375,12.375 10.78125,0 20.53125,-3.1875 9.75,-3.1875 19.78125,-10.03125 z m -123.8191,-303.5961 28.14158,28.71612 c 0,0 -29.16366,-8.97823 -48.62429,0.93256 -17.01306,8.66431 -96.67481,444.15149 -96.67481,444.15149 0,0 11.05028,-23.36572 25.68362,-23.36572 14.63333,0 17.61786,27.0613 17.61786,27.0613 0,0 -0.30599,-21.21721 12.57159,-20.24258 12.87758,0.97462 15.65418,26.91197 15.65418,26.91197 0,0 8.68459,-20.99508 22.72071,-20.99508 14.03611,0 18.3181,29.32909 18.3181,29.32909 0,0 7.41502,-32.20936 24.03286,-31.00823 16.61783,1.2011 20.98575,23.94335 20.98575,23.94335 0,0 11.67472,-28.7619 26.76833,-27.96359 15.09362,0.79831 22.0028,23.15664 22.0028,23.15664 0,0 4.62934,-24.13788 15.88236,-23.14757 11.25298,0.99031 18.78663,22.83685 18.78663,22.83685 0,0 2.45968,-24.64006 18.48609,-25.7531 16.02637,-1.11307 21.93948,16.00887 21.93948,16.00887 0,0 3.18123,-21.64694 20.87289,-20.75777 17.69167,0.88921 24.06777,19.20102 24.06777,19.20102 0,0 -2.84281,-23.46739 10.38002,-29.48129 13.22279,-6.01388 26.11968,12.98218 26.11968,12.98218 0,0 -68.40288,-403.81249 -89.69232,-416.82001 -15.26347,-9.32573 -56.87845,-4.98912 -56.87845,-4.98912 l 25.07259,-31.49613 c 0,0 -18.83278,-8.9584 -58.27148,-8.92435 -39.43868,0.034 -65.96354,9.7131 -65.96354,9.7131 z"/>
    </g>
</svg>
